<svg width="1143" height="1123" xmlns="http://www.w3.org/2000/svg" xmlns:xlink="http://www.w3.org/1999/xlink" xml:space="preserve" overflow="hidden"><defs><clipPath id="clip0"><rect x="798" y="621" width="1143" height="1123"/></clipPath></defs><g clip-path="url(#clip0)" transform="translate(-798 -621)"><path d="M1018 829 1018 1538.05" stroke="#FFFFFF" stroke-width="27.5" stroke-miterlimit="8" fill="none" fill-rule="evenodd"/><path d="M1683 829 1683 1538.05" stroke="#FFFFFF" stroke-width="27.5" stroke-miterlimit="8" fill="none" fill-rule="evenodd"/><path d="M1255 1020 1255 1729.05" stroke="#FFFFFF" stroke-width="27.5" stroke-miterlimit="8" fill="none" fill-rule="evenodd"/><path d="M1444 941 1444 1347.74" stroke="#FFFFFF" stroke-width="27.5" stroke-miterlimit="8" stroke-dasharray="27.5 27.5" fill="none" fill-rule="evenodd"/><path d="M1018 1538 1254.5 1729.12" stroke="#FFFFFF" stroke-width="27.5" stroke-miterlimit="8" fill="none" fill-rule="evenodd"/><path d="M0 0 427.625 191.125" stroke="#FFFFFF" stroke-width="27.5" stroke-miterlimit="8" fill="none" fill-rule="evenodd" transform="matrix(1 0 0 -1 1255 1729.12)"/><path d="M0 0 427.625 191.125" stroke="#FFFFFF" stroke-width="27.5" stroke-miterlimit="8" stroke-dasharray="27.5 27.5" fill="none" fill-rule="evenodd" transform="matrix(1 0 0 -1 1018 1535.13)"/><path d="M1446 1347 1682.5 1538.13" stroke="#FFFFFF" stroke-width="27.5" stroke-miterlimit="8" stroke-dasharray="27.5 27.5" fill="none" fill-rule="evenodd"/><path d="M1018 829 1254.5 1020.13" stroke="#FFFFFF" stroke-width="27.5" stroke-miterlimit="8" fill="none" fill-rule="evenodd"/><path d="M0 0 427.625 191.125" stroke="#FFFFFF" stroke-width="27.5" stroke-miterlimit="8" fill="none" fill-rule="evenodd" transform="matrix(1 0 0 -1 1255 1020.13)"/><path d="M0 0 642.246 287.049" stroke="#FFFFFF" stroke-width="27.5" stroke-miterlimit="8" fill="none" fill-rule="evenodd" transform="matrix(1 0 0 -1 804 922.049)"/><path d="M1439 635 1926.64 1029.08" stroke="#FFFFFF" stroke-width="27.5" stroke-miterlimit="8" fill="none" fill-rule="evenodd"/><path d="M1384 766C1384 748.327 1398.33 734 1416 734 1433.67 734 1448 748.327 1448 766 1448 783.673 1433.67 798 1416 798 1398.33 798 1384 783.673 1384 766Z" stroke="#FFFFFF" stroke-width="27.5" stroke-miterlimit="8" fill="#FFFFFF" fill-rule="evenodd"/></g></svg>