<?xml version="1.0" encoding="UTF-8" standalone="no"?>
<svg
   id="Layer_1"
   data-name="Layer 1"
   version="1.1"
   viewBox="0 0 263.71252 117.8"
   sodipodi:docname="Logos (1).svg"
   width="263.71252"
   height="117.8"
   xmlns:inkscape="http://www.inkscape.org/namespaces/inkscape"
   xmlns:sodipodi="http://sodipodi.sourceforge.net/DTD/sodipodi-0.dtd"
   xmlns="http://www.w3.org/2000/svg"
   xmlns:svg="http://www.w3.org/2000/svg">
  <sodipodi:namedview
     id="namedview60"
     pagecolor="#ffffff"
     bordercolor="#000000"
     borderopacity="0.25"
     inkscape:showpageshadow="2"
     inkscape:pageopacity="0.0"
     inkscape:pagecheckerboard="0"
     inkscape:deskcolor="#d1d1d1"
     inkscape:zoom="2.5334448"
     inkscape:cx="194.99142"
     inkscape:cy="269.00132"
     inkscape:window-width="2880"
     inkscape:window-height="1771"
     inkscape:window-x="-9"
     inkscape:window-y="-9"
     inkscape:window-maximized="1"
     inkscape:current-layer="Layer_1" />
  <defs
     id="defs1">
    <style
       id="style1">&#10;      .cls-1 {&#10;        fill: #1a1516;&#10;      }&#10;&#10;      .cls-1, .cls-2 {&#10;        stroke-width: 0px;&#10;      }&#10;&#10;      .cls-2 {&#10;        fill: #000;&#10;      }&#10;    </style>
  </defs>
  <g
     id="g54"
     transform="translate(-114.7875,-428.4)">
    <g
       id="g44">
      <g
         id="g42">
        <path
           class="cls-1"
           d="m 133.3,454.8 c -0.1,0.5 -0.2,1 -0.3,1.6 z"
           id="path41" />
        <path
           class="cls-1"
           d="m 132.9,457.6 c 0,0 -0.2,0 -0.2,0 -0.6,-0.1 -1.1,-0.6 -1.1,-1.3 0,0 0,-0.2 0,-0.2 l 0.3,-1.6 c 0.1,-0.6 0.6,-1.1 1.3,-1.1 v 0 c 0.4,0 0.8,0.2 1,0.5 0.2,0.3 0.3,0.7 0.2,1.1 v 0 c -0.1,0.5 -0.2,1 -0.3,1.5 -0.1,0.6 -0.6,1.1 -1.3,1.1 z"
           id="path42" />
      </g>
      <g
         id="g43">
        <polygon
           class="cls-1"
           points="144.6,493.8 145,494.2 "
           id="polygon42" />
        <path
           class="cls-1"
           d="m 145,495.5 c -0.3,0 -0.7,-0.1 -0.9,-0.4 l -0.4,-0.4 c -0.5,-0.5 -0.5,-1.3 0,-1.8 0.5,-0.5 1.3,-0.5 1.8,0 l 0.4,0.4 c 0.2,0.2 0.4,0.6 0.4,0.9 v 0 c 0,0.5 -0.3,1 -0.8,1.2 -0.2,0 -0.3,0 -0.5,0 z"
           id="path43" />
      </g>
    </g>
    <g
       id="g45">
      <path
         class="cls-1"
         d="m 186.7,494.8 c -0.2,0.2 -0.3,0.4 -0.5,0.6 -1,1.2 -2,2.3 -3.1,3.3 -0.3,0.3 -0.6,0.5 -0.8,0.8 0,0 0,0 -0.1,0 V 499 c 0,-0.3 0,-0.5 -0.1,-0.8 -0.2,-1.3 -0.9,-2.5 -1.9,-3.4 -1.2,-1.1 -2.8,-1.7 -4.4,-1.6 l -21.4,1.2 h -1.9 c 0,0 0,0 -0.1,0 h -0.3 c 0,0 0,0 0,0 0,0 0,0 -0.1,-0.1 -0.7,-0.4 -1.3,-0.9 -1.9,-1.4 -0.3,-0.3 -0.6,-0.5 -0.9,-0.8 -0.2,-0.2 -0.5,-0.5 -0.7,-0.7 -0.1,-0.1 -0.3,-0.3 -0.3,-0.4 0,0 -0.1,-0.1 -0.2,-0.2 -0.3,-0.4 -0.6,-0.8 -0.9,-1.3 0,0 -0.1,-0.2 -0.2,-0.3 h 1.3 c 0,0 13.9,-0.9 13.9,-0.9 1,0 1.9,-0.5 2.5,-1.2 0.7,-0.7 1,-1.7 0.9,-2.6 l -1.3,-23.2 c -0.1,-2 -1.9,-3.6 -3.9,-3.4 l -22.1,1.3 h -1.5 c 0.3,-1.7 0.7,-3.5 0.9,-5.5 v 0 c 0,0 0,0 0,-0.1 h 0.1 c 0,0 1.6,-0.1 1.6,-0.1 l 20.7,-1.2 c 5.1,-0.3 9.5,3.6 9.8,8.7 l 1.3,23.2 c 0,1.3 -0.1,2.6 -0.6,3.8 l 4.9,-0.3 c 3.1,-0.2 6.1,0.9 8.5,3 1,0.9 1.8,1.9 2.5,3.1 0.2,0.3 0.3,0.6 0.5,1 z"
         id="path44" />
      <path
         class="cls-1"
         d="m 181.6,500.5 v -1.3 c -0.1,-0.3 -0.1,-0.5 -0.2,-0.7 -0.2,-1.2 -0.8,-2.3 -1.8,-3.1 -1.1,-1 -2.5,-1.5 -4,-1.4 l -23.3,1.3 h -0.2 c 0,0 -0.3,0 -0.3,0 l -0.2,-0.2 c 0,0 0,0 0,0 -0.7,-0.4 -1.3,-0.9 -2,-1.5 -0.3,-0.3 -0.6,-0.5 -0.9,-0.9 -0.3,-0.4 -0.5,-0.5 -0.7,-0.8 -0.1,-0.1 -0.3,-0.3 -0.4,-0.5 0,0 0,0 0,0 -0.4,-0.5 -0.7,-1 -1,-1.4 0,0 -0.1,-0.2 -0.2,-0.3 l -0.4,-0.8 16.1,-0.9 c 0.8,0 1.6,-0.4 2.1,-1 0.6,-0.6 0.8,-1.4 0.8,-2.2 l -1.3,-23.2 c 0,-0.8 -0.4,-1.6 -1,-2.1 -0.6,-0.6 -1.4,-0.8 -2.2,-0.8 l -24.3,1.4 v -0.7 c 0.2,-0.7 0.3,-1.4 0.5,-2.2 0.2,-1.1 0.4,-2.2 0.5,-3.4 v -0.5 h 0.6 c 0,-0.1 22.2,-1.4 22.2,-1.4 2.6,-0.2 5.1,0.7 7.1,2.5 2,1.7 3.1,4.2 3.3,6.8 l 1.3,23.2 c 0,1.1 0,2.2 -0.4,3.2 l 4.1,-0.2 c 3.3,-0.2 6.4,0.9 8.9,3.1 1.1,0.9 1.9,2 2.6,3.2 0.2,0.3 0.3,0.7 0.5,1 v 0.3 c 0.1,0 0,0.3 0,0.3 -0.2,0.2 -0.3,0.4 -0.5,0.6 -1.1,1.3 -2.1,2.4 -3.2,3.4 l -0.2,0.2 c -0.2,0.2 -0.4,0.4 -0.6,0.6 0,0 -0.2,0.2 -0.3,0.2 l -0.7,0.4 z m 0.2,-1.3 z m -5.8,-6.4 c 1.6,0 3.2,0.6 4.4,1.7 1.1,1 1.9,2.3 2.1,3.7 0,0 0,0.1 0,0.2 h 0.1 c 1.1,-1.1 2.1,-2.2 3.1,-3.4 0,-0.1 0.2,-0.2 0.3,-0.3 0,-0.2 -0.2,-0.4 -0.3,-0.6 -0.6,-1.1 -1.4,-2.1 -2.3,-3 -2.2,-2 -5.1,-3 -8.1,-2.8 l -5.8,0.3 0.3,-0.8 c 0.4,-1.1 0.6,-2.3 0.6,-3.6 L 169.1,461 c -0.1,-2.3 -1.2,-4.4 -2.9,-6 -1.7,-1.5 -4,-2.3 -6.3,-2.2 l -21.9,1.3 c -0.1,1.1 -0.3,2.1 -0.5,3.1 0,0.5 -0.2,1 -0.3,1.4 h 0.8 c 0,0 22.1,-1.3 22.1,-1.3 1.1,0 2.2,0.3 3,1.1 0.8,0.7 1.3,1.8 1.4,2.9 l 1.3,23.2 c 0,1.1 -0.3,2.2 -1.1,3.1 -0.7,0.8 -1.8,1.3 -2.9,1.4 l -14.3,0.8 c 0.2,0.3 0.4,0.5 0.6,0.7 l 0.2,0.2 c 0,0.1 0.2,0.2 0.3,0.3 0.2,0.3 0.4,0.5 0.7,0.7 0.3,0.3 0.6,0.5 0.9,0.8 0.6,0.5 1.2,1 1.9,1.4 v 0 c 0,0 0.3,0 0.3,0 v 0 c 0,0 23.1,-1.2 23.1,-1.2 0.1,0 0.3,0 0.4,0 z"
         id="path45" />
    </g>
    <path
       class="cls-1"
       d="m 187.7,495.7 -0.5,0.6 c -1,1.2 -2.1,2.4 -3.3,3.5 l -0.3,0.3 c -0.2,0.2 -0.3,0.3 -0.5,0.5 -0.2,0.2 -0.3,0.3 -0.4,0.3 -0.2,0.1 -0.4,0.1 -0.6,0.1 -0.2,0 -0.5,0 -0.7,-0.2 -0.4,-0.2 -0.6,-0.6 -0.7,-1.1 v -0.4 c 0,0 0,0 0,0 0,-1.3 -0.6,-2.4 -1.6,-3.3 -1,-0.9 -2.2,-1.3 -3.5,-1.2 l -19.4,1.1 -3.9,0.2 c -0.2,0 -0.3,0 -0.5,0 -0.3,0 -0.5,0 -0.7,-0.2 0,0 -0.1,0 -0.2,-0.1 -0.7,-0.4 -1.4,-0.9 -2,-1.5 -0.4,-0.3 -0.7,-0.6 -1,-0.9 -0.3,-0.3 -0.5,-0.5 -0.7,-0.8 -0.1,-0.1 -0.3,-0.3 -0.4,-0.5 0,0 -0.1,-0.1 -0.2,-0.2 -0.4,-0.4 -0.7,-0.9 -1,-1.4 0,-0.1 -0.2,-0.2 -0.2,-0.4 -0.2,-0.4 -0.2,-0.9 0,-1.3 0.2,-0.4 0.6,-0.6 1,-0.7 0,0 0,0 0,0 l 15.3,-0.9 c 0.6,0 1.2,-0.3 1.6,-0.8 0.4,-0.5 0.6,-1.1 0.6,-1.7 l -1.3,-23.2 c 0,-0.6 -0.3,-1.2 -0.8,-1.6 -0.5,-0.4 -1,-0.6 -1.7,-0.6 l -22.5,1.3 h -1.1 c -0.4,0 -0.8,0 -1.1,-0.4 -0.3,-0.3 -0.4,-0.7 -0.3,-1.1 0.1,-0.7 0.2,-1.5 0.4,-2.2 0.2,-1.1 0.4,-2.1 0.5,-3.3 0,0 0,-0.1 0,-0.2 0,-0.6 0.6,-1.1 1.2,-1.2 h 0.1 c 0,0 0,0 0,0 h 2.1 c -0.2,0.3 -0.3,0.8 -0.5,1.2 l 20.7,-1.2 c 5.1,-0.3 9.5,3.6 9.8,8.7 l 1.3,23.2 c 0,1.3 -0.1,2.6 -0.6,3.8 l 4.9,-0.3 c 3.1,-0.2 6.1,0.9 8.5,3 1,0.9 1.8,1.9 2.5,3.1 0,0 0.2,-0.2 0.2,-0.3 v -0.2 c 0,0 0.5,-0.5 0.5,-0.5 0,0 0.1,-0.1 0.2,-0.2 0.3,0.5 0.6,1 0.8,1.6 0.2,0.4 0.1,1 -0.2,1.4 z"
       id="path46" />
    <g
       id="g47">
      <path
         class="cls-1"
         d="M 181.1,498.8 Z"
         id="path47" />
      <circle
         class="cls-1"
         cx="181.10001"
         cy="498.79999"
         r="0.60000002"
         id="circle47" />
    </g>
    <path
       class="cls-1"
       d="m 176,492.1 c 1.8,0 3.6,0.7 4.9,1.9 1,0.8 1.7,1.9 2.1,3 0.8,-0.8 1.5,-1.5 2.2,-2.4 -0.6,-1.1 -1.3,-2 -2.3,-2.9 -2.1,-1.9 -4.7,-2.8 -7.5,-2.6 l -4.9,0.3 c -0.5,0 -0.9,-0.2 -1.1,-0.5 -0.3,-0.4 -0.3,-0.8 -0.2,-1.3 0.4,-1 0.6,-2.1 0.5,-3.3 l -1.3,-23.2 c -0.1,-2.1 -1.1,-4.1 -2.7,-5.5 -1.6,-1.4 -3.6,-2.1 -5.7,-2 l -21.3,1.2 c -0.1,0.9 -0.3,1.7 -0.4,2.5 0,0.2 0,0.3 0,0.5 l 21.9,-1.2 c 1.3,0 2.6,0.4 3.6,1.3 1,0.9 1.6,2.1 1.7,3.4 l 1.3,23.2 c 0,1.3 -0.4,2.6 -1.3,3.6 -0.9,1 -2.1,1.6 -3.4,1.7 l -12.8,0.7 c 0,0 0,0 0.1,0.1 0.2,0.2 0.4,0.5 0.6,0.7 0.2,0.2 0.5,0.5 0.8,0.8 0.5,0.5 1,0.8 1.6,1.2 0,0 0.2,0 0.3,0 l 22.9,-1.3 c 0.2,0 0.3,0 0.4,0 z"
       id="path48" />
    <path
       class="cls-1"
       d="M 152.8,493.6 Z"
       id="path49" />
    <g
       id="g51">
      <path
         class="cls-1"
         d="m 168.2,517.9 v 3 c 6.4,0.2 8.1,0.3 8.1,2.7 0,2.9 -9.7,3.2 -18.5,3.2 -8.8,0 -16.6,-0.2 -16.6,-3.2 0,-3 2,-2.5 8.7,-2.7 v -3 c -8.5,0.2 -14.3,1.4 -14.3,5.7 0,4.3 14.5,5.8 23.1,5.8 8.6,0 23.1,-0.8 23.1,-5.8 0,-5 -5.2,-5.4 -13.7,-5.7 z"
         id="path50" />
      <path
         class="cls-1"
         d="m 158.8,530.7 c -16.2,0 -24.4,-2.4 -24.4,-7.1 0,-4.7 7.5,-6.8 15.5,-7 0.3,0 0.7,0.1 0.9,0.4 0.2,0.2 0.4,0.6 0.4,0.9 v 3 c 0,0.7 -0.5,1.3 -1.2,1.3 h -0.6 c -6.4,0.2 -6.9,0.4 -6.9,1.4 0,1 0,0.9 3.9,1.4 3.1,0.4 7.5,0.5 11.4,0.5 3.9,0 8.5,0 11.8,-0.4 5,-0.5 5.4,-1.5 5.4,-1.5 0,-1 -0.2,-1.1 -6.5,-1.4 h -0.4 c -0.7,0 -1.2,-0.6 -1.2,-1.3 v -3 c 0,-0.3 0.1,-0.7 0.4,-0.9 0.3,-0.2 0.6,-0.4 0.9,-0.4 7.7,0.2 14.9,1.3 14.9,7 0,5.7 -7.1,5.6 -9.4,6 -4.9,0.8 -10.9,1 -15,1 z m -5,-2.7 c 1.5,0 3.2,0 5,0 3,0 5.6,0 7.9,-0.2 -2.8,0.1 -5.9,0.2 -8.9,0.2 -3,0 -2.8,0 -4.1,0 z m 15.7,-8.3 c 5.7,0.2 8.1,0.5 8.1,3.9 0,2.3 -2.5,3.2 -5.3,3.7 6,-0.9 8.3,-2.4 8.3,-3.7 0,-1.9 -1.4,-3.9 -11.1,-4.4 z m -20.8,-0.5 c -8.2,0.3 -11.7,1.7 -11.7,4.4 0,2.7 1.8,2.5 6.4,3.4 -2.1,-0.7 -3.3,-1.7 -3.3,-3.4 0,-3.5 2.7,-3.8 8.7,-3.9 v -0.5 z"
         id="path51" />
    </g>
    <g
       id="g53">
      <path
         class="cls-1"
         d="m 157.8,429.7 c -2.4,0 -4.8,0.2 -7.1,0.6 h -0.3 c -0.2,0 -0.4,0.1 -0.6,0.2 -19.5,3.8 -33.6,20.9 -33.6,40.8 0,19.9 1.4,12.3 4,17.9 0.3,0.7 0.7,1.4 1.1,2.1 4.5,8.2 11.7,14.7 20.3,18.4 4.9,2.1 10.2,3.2 15.7,3.3 v 8.1 c 0,0 0,0.1 0,0.2 0,0.2 0.2,0.3 0.4,0.3 h 3 c 0.2,0 0.4,-0.1 0.4,-0.3 0,0 0,-0.1 0,-0.2 v -8.2 c 0.6,0 1.2,-0.1 1.8,-0.2 1.1,-0.1 2.1,-0.3 3.1,-0.5 0.8,-0.2 1.6,-0.4 2.4,-0.6 0.9,-0.3 1.9,-0.6 2.8,-0.9 4.3,-1.5 8.4,-3.7 12.1,-6.6 0,0 0,0 0,0 l 0.3,-0.3 c 0.8,-0.7 1.6,-1.4 2.3,-2 l 0.9,-0.9 v 0 c 0.9,-0.9 1.8,-1.9 2.6,-2.8 0.4,-0.5 0.8,-0.9 1.1,-1.4 l 0.3,-0.5 c 0.1,-0.2 0.3,-0.4 0.4,-0.5 1.8,-2.5 3.3,-5.2 4.5,-8 0.3,-0.6 0.5,-1.3 0.8,-1.9 0.7,-1.9 1.2,-3.9 1.6,-5.8 0,-0.2 0.1,-0.5 0.1,-0.7 v -0.4 c 0,0 0.1,-0.1 0.1,-0.3 0.1,-0.7 0.2,-1.4 0.3,-2 0.2,-1.6 0.3,-3.3 0.3,-5 0,-22.9 -18.7,-41.6 -41.6,-41.6 z m 36,46 c 0,0.6 -0.2,1.2 -0.2,1.7 0,0.2 0,0.3 -0.1,0.5 v 0.2 c 0,0.1 0,0.3 -0.1,0.5 -0.4,1.8 -0.8,3.5 -1.4,5.1 -0.2,0.6 -0.4,1.1 -0.7,1.7 -1,2.4 -2.4,4.8 -3.9,7 0,0.1 -0.1,0.2 -0.2,0.3 0,0 -0.1,0.1 -0.2,0.2 l -0.4,0.5 v 0.2 c -0.1,0 -0.2,0.2 -0.3,0.3 0,0 0,0 -0.1,0.1 -0.2,0.2 -0.3,0.4 -0.5,0.6 -0.9,1.1 -2,2.2 -3,3.2 -0.2,0.2 -0.4,0.4 -0.6,0.6 0,0 -0.1,0.1 -0.2,0.2 0,0 0,0 0,0 0,0 -0.1,0.1 -0.2,0.2 0,0 -0.1,0.1 -0.2,0.2 -0.1,0.1 -0.3,0.2 -0.4,0.3 0,0 -0.1,0 -0.2,0 -1.4,0.3 -2.8,0.5 -4.2,0.6 -0.9,0.1 -1.8,0.1 -2.8,0.2 -0.2,0 -0.3,0 -0.5,0 -6,0 -11.8,-1.5 -17,-4.3 -0.6,-0.3 -1.1,-0.6 -1.7,-1 -0.1,0 -0.3,-0.2 -0.4,-0.3 -0.4,-0.2 -0.8,-0.5 -1.1,-0.7 0,0 0,0 -0.1,0 h -0.2 c 0,0 0,0 0,0 0,0 -0.1,0 -0.1,-0.1 -0.7,-0.4 -1.3,-0.9 -1.9,-1.4 -0.3,-0.2 -0.6,-0.5 -0.9,-0.8 -0.2,-0.2 -0.4,-0.5 -0.7,-0.7 -0.1,-0.1 -0.2,-0.3 -0.3,-0.4 0,0 -0.1,-0.1 -0.2,-0.2 -0.3,-0.3 -0.5,-0.6 -0.7,-1 0,0 -0.1,-0.2 -0.2,-0.3 0,0 -0.1,-0.2 -0.2,-0.3 h -0.5 c -0.2,-0.2 -0.4,-0.4 -0.6,-0.7 -5.8,-6.5 -9,-14.9 -9,-23.7 0,-8.8 0,-2.5 0.2,-3.7 0,-0.2 0,-0.5 0,-0.7 h 0.1 c 0,-0.2 0,-0.4 0.1,-0.6 0,-0.4 0.2,-0.9 0.2,-1.4 0.2,-1 0.4,-1.9 0.5,-3 0,-0.1 0,-0.3 0,-0.4 v 0 c 0,0 0,0 0,-0.1 h 0.1 c 0,-0.3 0.2,-0.6 0.3,-0.8 0.1,-0.5 0.3,-0.9 0.5,-1.4 2.3,-6.6 6.6,-12.4 12.3,-16.6 v 0 c 0.1,0 0.2,0 0.4,0 0.3,0 0.7,-0.1 1,-0.1 0,0 0,0 0.1,0 0.5,0 0.9,-0.1 1.4,-0.1 0.4,0 0.9,0 1.3,0 0.5,0 1.1,0 1.6,0 20,0 36.2,16.3 36.2,36.2 0,19.9 0,2.9 -0.2,4.4 z m -32.3,31.7 c -0.2,0 -0.4,0 -0.6,0 -1,0 -2.1,0.1 -3.1,0.1 -4.9,0 -9.7,-1 -14.2,-2.9 v 0 c -7.4,-3.2 -13.7,-8.8 -17.6,-16 -0.3,-0.6 -0.6,-1.2 -0.9,-1.8 -2.3,-4.9 -3.5,-10.1 -3.5,-15.6 0,-13.6 7.5,-25.6 18.9,-31.8 -3.2,4.2 -5.5,8.9 -6.9,14 -0.1,0.4 -0.2,0.8 -0.3,1.2 -0.1,0.5 -0.2,1 -0.3,1.6 0,0 0,0.1 0,0.2 0,0 0,0.2 0,0.3 v 0 c 0,0.3 0,0.6 -0.1,0.8 -0.4,2.2 -0.6,4.5 -0.6,6.7 0,10.7 4.1,20.8 11.5,28.6 0.2,0.2 0.3,0.3 0.5,0.5 l 0.4,0.4 0.4,0.4 v 0 c 0,0 0,0 0,0 0.3,0.3 0.6,0.6 0.9,0.9 6.8,6.1 15.4,9.7 24.4,10.3 0,0 0,0 0,0 -0.4,0.1 -0.7,0.3 -1.1,0.4 -0.2,0 -0.3,0.1 -0.5,0.2 -0.4,0.1 -0.9,0.3 -1.4,0.4 -0.3,0.1 -0.7,0.2 -1.1,0.3 -0.3,0 -0.5,0.1 -0.8,0.2 -0.9,0.2 -1.8,0.4 -2.8,0.5 -0.4,0 -0.8,0 -1.2,0.1 z"
         id="path52" />
      <path
         class="cls-1"
         d="m 171.6,504.9 c -0.2,-0.5 -0.6,-0.8 -1.1,-0.8 -9.2,-0.6 -17.9,-4.5 -24.6,-10.8 v 0 l -0.4,-0.4 -0.4,-0.4 c -7.5,-7.5 -11.6,-17.5 -11.6,-28.2 0,-10.7 0.2,-4.9 0.7,-7.2 v 0 -0.1 -0.3 0 c 0,-0.5 0.2,-1 0.3,-1.5 v 0 c 1.3,-5.4 3.6,-10.3 7,-14.7 0.4,-0.5 0.3,-1.2 0,-1.6 -0.4,-0.5 -1,-0.6 -1.6,-0.3 -12,6.5 -19.5,19.2 -19.5,32.9 0,13.7 1.2,11.1 3.6,16.1 0.3,0.7 0.6,1.3 1,1.9 4,7.4 10.5,13.3 18.3,16.6 h 0.1 c 4.6,2 9.5,2.9 14.6,2.9 5.1,0 2.1,0 3.2,-0.1 v 0 h 0.3 0.3 c 0.4,0 0.8,0 1.2,-0.1 1,-0.1 1.9,-0.3 2.9,-0.5 0.3,0 0.6,-0.1 0.9,-0.2 0.4,0 0.7,-0.2 1.1,-0.3 0.5,-0.1 0.9,-0.3 1.4,-0.4 0.2,0 0.4,-0.1 0.5,-0.2 0.4,-0.1 0.8,-0.3 1.1,-0.4 h 0.1 c 0.1,0 0.3,-0.2 0.4,-0.3 0.4,-0.3 0.5,-0.9 0.3,-1.4 z m -10.5,1.3 h -0.3 c -1,0 -2,0.1 -2.9,0.1 -4.8,0 -9.4,-0.9 -13.7,-2.8 h -0.1 c -7.2,-3.1 -13.2,-8.5 -16.9,-15.4 -0.3,-0.5 -0.6,-1.1 -0.9,-1.7 -2.2,-4.7 -3.4,-9.8 -3.4,-15 0,-10.8 4.9,-20.8 13.2,-27.4 -1.7,3.2 -3,6.5 -3.9,10.1 0,0.1 0,0.3 -0.1,0.4 -0.1,0.5 -0.2,1 -0.3,1.6 v 0 0.1 0.1 0.2 0 c -0.5,2.5 -0.7,5.1 -0.7,7.7 0,11.3 4.4,21.9 12.4,30 l 0.4,0.4 0.4,0.4 0.2,0.2 v 0 c 5.6,5.2 12.5,8.8 19.9,10.5 -0.6,0.1 -1.1,0.2 -1.7,0.3 -0.4,0 -0.7,0 -1.2,0.1 h -0.3 z m 10.5,-1.3 c -0.2,-0.5 -0.6,-0.8 -1.1,-0.8 -9.2,-0.6 -17.9,-4.5 -24.6,-10.8 v 0 l -0.4,-0.4 -0.4,-0.4 c -7.5,-7.5 -11.6,-17.5 -11.6,-28.2 0,-10.7 0.2,-4.9 0.7,-7.2 v 0 -0.1 -0.3 0 c 0,-0.5 0.2,-1 0.3,-1.5 v 0 c 1.3,-5.4 3.6,-10.3 7,-14.7 0.4,-0.5 0.3,-1.2 0,-1.6 -0.4,-0.5 -1,-0.6 -1.6,-0.3 -12,6.5 -19.5,19.2 -19.5,32.9 0,13.7 1.2,11.1 3.6,16.1 0.3,0.7 0.6,1.3 1,1.9 4,7.4 10.5,13.3 18.3,16.6 h 0.1 c 4.6,2 9.5,2.9 14.6,2.9 5.1,0 2.1,0 3.2,-0.1 v 0 h 0.3 0.3 c 0.4,0 0.8,0 1.2,-0.1 1,-0.1 1.9,-0.3 2.9,-0.5 0.3,0 0.6,-0.1 0.9,-0.2 0.4,0 0.7,-0.2 1.1,-0.3 0.5,-0.1 0.9,-0.3 1.4,-0.4 0.2,0 0.4,-0.1 0.5,-0.2 0.4,-0.1 0.8,-0.3 1.1,-0.4 h 0.1 c 0.1,0 0.3,-0.2 0.4,-0.3 0.4,-0.3 0.5,-0.9 0.3,-1.4 z m -10.5,1.3 h -0.3 c -1,0 -2,0.1 -2.9,0.1 -4.8,0 -9.4,-0.9 -13.7,-2.8 h -0.1 c -7.2,-3.1 -13.2,-8.5 -16.9,-15.4 -0.3,-0.5 -0.6,-1.1 -0.9,-1.7 -2.2,-4.7 -3.4,-9.8 -3.4,-15 0,-10.8 4.9,-20.8 13.2,-27.4 -1.7,3.2 -3,6.5 -3.9,10.1 0,0.1 0,0.3 -0.1,0.4 -0.1,0.5 -0.2,1 -0.3,1.6 v 0 0.1 0.1 0.2 0 c -0.5,2.5 -0.7,5.1 -0.7,7.7 0,11.3 4.4,21.9 12.4,30 l 0.4,0.4 0.4,0.4 0.2,0.2 v 0 c 5.6,5.2 12.5,8.8 19.9,10.5 -0.6,0.1 -1.1,0.2 -1.7,0.3 -0.4,0 -0.7,0 -1.2,0.1 h -0.3 z m -3.3,-77.7 c -2.5,0 -5,0.2 -7.3,0.6 h -0.3 v 0 h -0.6 c -20.1,4 -33.47599,21.73657 -34.7,42.2 -0.65393,10.93272 1.60326,13.01962 5.2,20.6 4.6,8.5 12,15.2 20.9,18.9 4.7,2 9.7,3.2 14.9,3.4 v 6.8 c 0,0.3 0,0.6 0.2,0.8 0.3,0.6 0.9,1 1.6,1 h 3 c 0.7,0 1.3,-0.4 1.6,-1 0.1,-0.2 0.2,-0.5 0.2,-0.8 v -7.1 h 0.7 c 1.1,-0.1 2.2,-0.3 3.2,-0.5 0.9,-0.2 1.8,-0.4 2.5,-0.6 0.9,-0.2 1.9,-0.6 2.9,-0.9 4.5,-1.6 8.7,-3.9 12.4,-6.8 v 0 l 0.3,-0.3 c 0.8,-0.6 1.6,-1.4 2.4,-2.1 l 0.9,-0.9 0.1,-0.1 c 0.9,-0.9 1.7,-1.8 2.6,-2.8 l 0.3,-0.4 c 0.3,-0.4 0.6,-0.7 0.9,-1.1 L 192,497 c 0.2,-0.2 0.3,-0.4 0.4,-0.6 1.9,-2.6 3.4,-5.3 4.6,-8.3 0.3,-0.6 0.5,-1.3 0.8,-2 0.7,-1.9 1.3,-3.9 1.7,-5.9 0,-0.3 0.1,-0.5 0.1,-0.8 V 479 c 0,0 0.1,-0.2 0.1,-0.4 0.1,-0.6 0.2,-1.3 0.3,-2.1 0.2,-1.6 0.3,-3.4 0.3,-5.2 0,-23.7 -19.2,-42.9 -42.9,-42.9 z m 40.1,47.7 c 0,0.7 -0.2,1.4 -0.3,2 v 0 0.2 0.5 c -0.1,0.2 -0.2,0.4 -0.2,0.6 -0.4,2 -0.9,3.8 -1.6,5.6 -0.2,0.6 -0.5,1.3 -0.7,1.9 -1.2,2.7 -2.6,5.3 -4.4,7.8 -0.1,0.2 -0.2,0.3 -0.4,0.5 l -0.3,0.5 c -0.3,0.3 -0.5,0.7 -0.8,1 l -0.3,0.4 c -0.8,1 -1.7,1.9 -2.5,2.7 v 0 l -0.8,0.8 c -0.7,0.7 -1.5,1.4 -2.2,2 l -0.3,0.3 v 0 c -3.5,2.8 -7.5,4.9 -11.7,6.4 -0.9,0.3 -1.9,0.6 -2.8,0.8 -0.6,0.2 -1.5,0.4 -2.4,0.6 -1,0.2 -2,0.4 -3.1,0.5 -0.7,0 -1.2,0.1 -1.7,0.2 -0.7,0 -1.2,0.6 -1.2,1.3 v 7.4 h -1.5 v -7.3 c 0,-0.7 -0.6,-1.3 -1.3,-1.3 -5.3,0 -10.4,-1.1 -15.2,-3.2 -8.3,-3.5 -15.3,-9.8 -19.6,-17.8 -0.3,-0.6 -0.7,-1.3 -1,-2 -2.6,-5.4 -3.9,-11.2 -3.9,-17.3 0,-19.3 13.7,-35.9 32.6,-39.6 l 0.8,-0.2 c 2.2,-0.4 4.5,-0.6 6.9,-0.6 22.2,0 40.3,18.1 40.3,40.3 0,22.2 0,3.3 -0.3,4.9 z m -27.4,27.9 c -9.2,-0.6 -17.9,-4.5 -24.6,-10.8 v 0 l -0.4,-0.4 -0.4,-0.4 c -7.5,-7.5 -11.6,-17.5 -11.6,-28.2 0,-10.7 0.2,-4.9 0.7,-7.2 v 0 -0.1 -0.3 0 c 0,-0.5 0.2,-1 0.3,-1.5 v 0 c 1.3,-5.4 3.6,-10.3 7,-14.7 0.4,-0.5 0.3,-1.2 0,-1.6 -0.4,-0.5 -1,-0.6 -1.6,-0.3 -12,6.5 -19.5,19.2 -19.5,32.9 0,13.7 1.2,11.1 3.6,16.1 0.3,0.7 0.6,1.3 1,1.9 4,7.4 10.5,13.3 18.3,16.6 h 0.1 c 4.6,2 9.5,2.9 14.6,2.9 5.1,0 2.1,0 3.2,-0.1 v 0 h 0.3 0.3 c 0.4,0 0.8,0 1.2,-0.1 1,-0.1 1.9,-0.3 2.9,-0.5 0.3,0 0.6,-0.1 0.9,-0.2 0.4,0 0.7,-0.2 1.1,-0.3 0.5,-0.1 0.9,-0.3 1.4,-0.4 0.2,0 0.4,-0.1 0.5,-0.2 0.4,-0.1 0.8,-0.3 1.1,-0.4 h 0.1 c 0.1,0 0.3,-0.2 0.4,-0.3 0.4,-0.3 0.5,-0.9 0.3,-1.4 -0.2,-0.5 -0.6,-0.8 -1.1,-0.8 z"
         id="path53"
         sodipodi:nodetypes="ccsccssscccssscccsccccssccscccccccsccccssccccscccsccccssccccscccccccsccssscccssscccsccccssccscccccccsccccssccccscccsccccssccccsccccccccccscccscsssscccccsccccscsscccccsccsscccscccccccccccscsccscccccsccsscccsccsscccsccssscccssscccsccccssccscccccccscscc" />
    </g>
  </g>
  <g
     id="g60"
     transform="translate(-114.7875,-428.4)"
     inkscape:export-filename="..\OneDrive\Desktop\logo.svg"
     inkscape:export-xdpi="96"
     inkscape:export-ydpi="96">
    <path
       class="cls-2"
       d="m 239.4,483.6 c -4.1,0 -7.7,-0.9 -11,-2.6 -3.3,-1.8 -5.8,-4.2 -7.6,-7.3 -1.8,-3.1 -2.8,-6.6 -2.8,-10.4 0,-3.8 0.9,-7.4 2.8,-10.4 1.9,-3.1 4.4,-5.5 7.7,-7.2 3.3,-1.8 6.9,-2.6 11,-2.6 4.1,0 5.9,0.5 8.4,1.6 2.5,1 4.8,2.6 6.8,4.6 l -7.9,8 c -0.9,-1 -2,-1.8 -3.2,-2.2 -1.2,-0.5 -2.6,-0.7 -4.1,-0.7 -1.5,0 -3.2,0.4 -4.6,1.2 -1.4,0.8 -2.4,1.8 -3.2,3.2 -0.8,1.4 -1.2,2.9 -1.2,4.7 0,1.8 0.4,3.4 1.2,4.8 0.8,1.4 1.9,2.5 3.2,3.2 1.4,0.8 2.9,1.2 4.6,1.2 1.7,0 3,-0.3 4.3,-0.8 1.3,-0.5 2.3,-1.3 3.2,-2.3 l 7.9,7.8 c -2.1,2.1 -4.4,3.7 -6.9,4.8 -2.5,1.1 -5.4,1.6 -8.6,1.6 z"
       id="path54" />
    <path
       class="cls-2"
       d="m 279,483.6 c -4.1,0 -7.7,-0.9 -10.9,-2.7 -3.2,-1.8 -5.7,-4.3 -7.6,-7.4 -1.9,-3.1 -2.8,-6.6 -2.8,-10.4 0,-3.8 0.9,-7.2 2.8,-10.2 1.9,-3 4.4,-5.5 7.6,-7.2 3.2,-1.8 6.9,-2.7 11,-2.7 4.1,0 7.6,0.9 10.8,2.6 3.2,1.8 5.8,4.2 7.6,7.2 1.9,3.1 2.8,6.5 2.8,10.3 0,3.8 -0.9,7.4 -2.8,10.4 -1.9,3.1 -4.4,5.5 -7.6,7.3 -3.2,1.8 -6.8,2.7 -10.9,2.7 z m 0,-11.2 c 1.7,0 3.2,-0.4 4.6,-1.1 1.3,-0.7 2.4,-1.8 3.1,-3.2 0.7,-1.4 1.1,-3 1.1,-4.8 0,-1.8 -0.4,-3.3 -1.1,-4.7 -0.7,-1.4 -1.8,-2.4 -3.1,-3.2 -1.3,-0.8 -2.8,-1.2 -4.5,-1.2 -1.7,0 -3.2,0.4 -4.6,1.2 -1.3,0.8 -2.4,1.9 -3.1,3.2 -0.7,1.4 -1.1,2.9 -1.1,4.6 0,1.7 0.4,3.4 1.1,4.8 0.7,1.4 1.8,2.5 3.1,3.2 1.3,0.7 2.9,1.1 4.6,1.1 z"
       id="path55" />
    <path
       class="cls-2"
       d="m 304.3,482.8 v -38.9 h 12.3 v 38.9 z m 25.8,0 v -22.2 c 0,-2 -0.6,-3.6 -1.9,-4.8 -1.3,-1.3 -2.9,-1.9 -4.8,-1.9 -1.9,0 -2.4,0.3 -3.4,0.8 -1,0.6 -1.8,1.3 -2.4,2.4 -0.6,1 -0.9,2.2 -0.9,3.5 l -4.7,-2.3 c 0,-3 0.7,-5.7 2,-8 1.4,-2.3 3.2,-4.1 5.6,-5.3 2.4,-1.3 5.1,-1.9 8,-1.9 2.9,0 5.4,0.7 7.6,2 2.2,1.3 4,3.1 5.3,5.4 1.3,2.3 1.9,4.7 1.9,7.4 v 24.9 z"
       id="path56" />
    <path
       class="cls-2"
       d="m 239.7,530.6 c -4.1,0 -7.7,-0.9 -11,-2.6 -3.3,-1.8 -5.8,-4.2 -7.6,-7.3 -1.8,-3.1 -2.8,-6.6 -2.8,-10.4 0,-3.8 0.9,-7.4 2.8,-10.4 1.9,-3.1 4.4,-5.5 7.7,-7.2 3.3,-1.8 6.9,-2.6 11,-2.6 4.1,0 5.9,0.5 8.4,1.6 2.5,1 4.8,2.6 6.8,4.6 l -7.9,8 c -0.9,-1 -2,-1.8 -3.2,-2.2 -1.2,-0.5 -2.6,-0.7 -4.1,-0.7 -1.5,0 -3.2,0.4 -4.6,1.2 -1.4,0.8 -2.4,1.8 -3.2,3.2 -0.8,1.4 -1.2,2.9 -1.2,4.7 0,1.8 0.4,3.4 1.2,4.8 0.8,1.4 1.9,2.5 3.2,3.2 1.4,0.8 2.9,1.2 4.6,1.2 1.7,0 3,-0.3 4.3,-0.8 1.3,-0.5 2.3,-1.3 3.2,-2.3 l 7.9,7.8 c -2.1,2.1 -4.4,3.7 -6.9,4.8 -2.5,1.1 -5.4,1.6 -8.6,1.6 z"
       id="path57" />
    <path
       class="cls-2"
       d="m 279.7,530.6 c -4.2,0 -7.9,-0.9 -11.2,-2.6 -3.3,-1.7 -5.8,-4.1 -7.7,-7.2 -1.9,-3.1 -2.8,-6.6 -2.8,-10.6 0,-4 0.9,-7.3 2.7,-10.4 1.8,-3.1 4.3,-5.5 7.4,-7.2 3.1,-1.8 6.7,-2.6 10.6,-2.6 3.9,0 7.3,0.8 10.2,2.5 2.9,1.7 5.3,3.9 7,6.9 1.7,2.9 2.6,6.3 2.6,10.1 0,3.8 0,1.5 -0.1,2.3 0,0.8 -0.3,1.6 -0.5,2.6 l -33.4,0.2 v -8.5 l 28.2,-0.2 -5.3,3.6 c 0,-2.2 -0.4,-4 -1,-5.5 -0.6,-1.5 -1.6,-2.6 -2.8,-3.4 -1.3,-0.8 -2.8,-1.2 -4.5,-1.2 -1.7,0 -3.6,0.5 -5,1.4 -1.4,0.9 -2.5,2.2 -3.3,3.8 -0.8,1.6 -1.2,3.5 -1.2,5.8 0,2.3 0.4,4.2 1.2,5.8 0.8,1.7 2,2.9 3.5,3.8 1.5,0.9 3.3,1.3 5.4,1.3 2.1,0 3.6,-0.3 5.1,-1 1.5,-0.7 2.9,-1.7 4.1,-3 l 6.8,6.7 c -1.9,2.3 -4.2,4 -7,5.1 -2.7,1.1 -5.7,1.6 -9,1.6 z"
       id="path58" />
    <path
       class="cls-2"
       d="m 304.3,546.2 v -55.3 h 12.3 v 9.9 l -2,9.5 1.8,9.4 v 26.4 h -12.2 z m 22.6,-15.6 c -2.7,0 -5.1,-0.5 -7.3,-1.5 -2.2,-1 -4,-2.4 -5.3,-4.2 -1.4,-1.8 -2.1,-3.8 -2.4,-6.1 v -16.4 c 0.2,-2.3 1,-4.4 2.4,-6.3 1.4,-1.8 3.2,-3.3 5.4,-4.4 2.2,-1.1 4.6,-1.6 7.2,-1.6 2.6,0 6.9,0.9 9.7,2.6 2.9,1.8 5.1,4.2 6.8,7.2 1.7,3 2.5,6.5 2.5,10.4 0,3.9 -0.8,7.3 -2.4,10.4 -1.6,3 -3.9,5.4 -6.8,7.2 -2.9,1.8 -6.1,2.7 -9.8,2.7 z m -2.4,-11.2 c 1.7,0 3.2,-0.4 4.5,-1.2 1.3,-0.8 2.3,-1.9 3.1,-3.2 0.8,-1.4 1.2,-3 1.2,-4.7 0,-1.7 -0.4,-3.3 -1.2,-4.7 -0.8,-1.4 -1.8,-2.5 -3.1,-3.2 -1.3,-0.8 -2.8,-1.2 -4.5,-1.2 -1.7,0 -3.2,0.4 -4.5,1.2 -1.3,0.8 -2.3,1.9 -3.1,3.2 -0.7,1.4 -1.1,3 -1.1,4.7 0,1.7 0.4,3.3 1.1,4.7 0.7,1.4 1.8,2.5 3.1,3.2 1.3,0.8 2.8,1.2 4.4,1.2 z"
       id="path59" />
    <path
       class="cls-2"
       d="m 348.7,501.4 v -10.5 h 29.8 v 10.5 z m 8.7,28.4 v -55 h 12.3 v 55 z"
       id="path60" />
  </g>
</svg>
